HIERARCHY
ROOT Hips
{
  OFFSET 5.84602e-005 68.8428 3.50346
  CHANNELS 6 Xposition Yposition Zposition Zrotation Xrotation Yrotation
  JOINT Spine
  {
    OFFSET 0 8.597 -4.6522
    CHANNELS 3 Zrotation Xrotation Yrotation
    JOINT Spine1
    {
      OFFSET 0 7.8454 0.4098
      CHANNELS 3 Zrotation Xrotation Yrotation
      JOINT Spine2
      {
        OFFSET 0 9.7078 -2.1609
        CHANNELS 3 Zrotation Xrotation Yrotation
        JOINT Neck
        {
          OFFSET 0 21.8761 -0.4549
          CHANNELS 3 Zrotation Xrotation Yrotation
          JOINT Head
          {
            OFFSET 0 12.3537 3.3602
            CHANNELS 3 Zrotation Xrotation Yrotation
            End Site
            {
              OFFSET 0.0001 18.9506 0.5657
            }
          }
        }
        JOINT LeftShoulder
        {
          OFFSET 2.2086 21.1115 7.2329
          CHANNELS 3 Zrotation Xrotation Yrotation
          JOINT LeftArm
          {
            OFFSET 13.1193 3.0282 -4.8998
            CHANNELS 3 Zrotation Xrotation Yrotation
            JOINT LeftForeArm
            {
              OFFSET 27.4081 -0.0973053 -0.2375
              CHANNELS 3 Zrotation Xrotation Yrotation
              JOINT LeftHand
              {
                OFFSET 22.8641 0.0662994 -0.1369
                CHANNELS 3 Zrotation Xrotation Yrotation
                JOINT LeftHandIndex1
                {
                  OFFSET 8.8614 0.775009 2.4612
                  CHANNELS 3 Zrotation Xrotation Yrotation
                  JOINT LeftHandIndex2
                  {
                    OFFSET 3.3146 -0.808304 0.5841
                    CHANNELS 3 Zrotation Xrotation Yrotation
                    JOINT LeftHandIndex3
                    {
                      OFFSET 2.2628 -0.552002 0.3989
                      CHANNELS 3 Zrotation Xrotation Yrotation
                      End Site
                      {
                        OFFSET 1.6102 -0.4807 0.2612
                      }
                    }
                  }
                }
                JOINT LeftHandMiddle1
                {
                  OFFSET 8.9937 0.895004 0.2143
                  CHANNELS 3 Zrotation Xrotation Yrotation
                  JOINT LeftHandMiddle2
                  {
                    OFFSET 4.0984 0.0113983 -0.0242
                    CHANNELS 3 Zrotation Xrotation Yrotation
                    JOINT LeftHandMiddle3
                    {
                      OFFSET 2.2716 0.00689697 -0.0138001
                      CHANNELS 3 Zrotation Xrotation Yrotation
                      End Site
                      {
                        OFFSET 2.0404 -0.1441 0.0027
                      }
                    }
                  }
                }
                JOINT LeftHandRing1
                {
                  OFFSET 8.5234 0.597198 -2.0164
                  CHANNELS 3 Zrotation Xrotation Yrotation
                  JOINT LeftHandRing2
                  {
                    OFFSET 3.7188 -0.188293 -0.2328
                    CHANNELS 3 Zrotation Xrotation Yrotation
                    JOINT LeftHandRing3
                    {
                      OFFSET 2.1191 -0.106598 -0.1332
                      CHANNELS 3 Zrotation Xrotation Yrotation
                      End Site
                      {
                        OFFSET 1.8737 -0.2304 -0.0886
                      }
                    }
                  }
                }
                JOINT LeftHandPinky1
                {
                  OFFSET 7.9094 -0.601089 -3.4825
                  CHANNELS 3 Zrotation Xrotation Yrotation
                  JOINT LeftHandPinky2
                  {
                    OFFSET 2.2874 -0.477005 -0.6314
                    CHANNELS 3 Zrotation Xrotation Yrotation
                    JOINT LeftHandPinky3
                    {
                      OFFSET 1.6774 -0.349396 -0.4633
                      CHANNELS 3 Zrotation Xrotation Yrotation
                      End Site
                      {
                        OFFSET 1.4888 -0.4091 -0.3416
                      }
                    }
                  }
                }
                JOINT LeftHandThumb1
                {
                  OFFSET 1.833 -1.3875 1.3896
                  CHANNELS 3 Zrotation Xrotation Yrotation
                  JOINT LeftHandThumb2
                  {
                    OFFSET 3.4129 -1.121 2.5732
                    CHANNELS 3 Zrotation Xrotation Yrotation
                    JOINT LeftHandThumb3
                    {
                      OFFSET 2.2474 -0.804199 1.6192
                      CHANNELS 3 Zrotation Xrotation Yrotation
                      End Site
                      {
                        OFFSET 1.6527 -0.5689 1.1317
                      }
                    }
                  }
                }
              }
            }
          }
        }
        JOINT RightShoulder
        {
          OFFSET -2.2086 21.1115 7.2329
          CHANNELS 3 Zrotation Xrotation Yrotation
          JOINT RightArm
          {
            OFFSET -13.1216 3.0287 -4.9007
            CHANNELS 3 Zrotation Xrotation Yrotation
            JOINT RightForeArm
            {
              OFFSET -27.4081 -0.0973053 -0.2375
              CHANNELS 3 Zrotation Xrotation Yrotation
              JOINT RightHand
              {
                OFFSET -22.8641 0.0664063 -0.1369
                CHANNELS 3 Zrotation Xrotation Yrotation
                JOINT RightHandIndex1
                {
                  OFFSET -8.8614 0.774994 2.4612
                  CHANNELS 3 Zrotation Xrotation Yrotation
                  JOINT RightHandIndex2
                  {
                    OFFSET -3.3146 -0.808304 0.5841
                    CHANNELS 3 Zrotation Xrotation Yrotation
                    JOINT RightHandIndex3
                    {
                      OFFSET -2.2628 -0.552002 0.3989
                      CHANNELS 3 Zrotation Xrotation Yrotation
                      End Site
                      {
                        OFFSET -1.6102 -0.4807 0.2612
                      }
                    }
                  }
                }
                JOINT RightHandMiddle1
                {
                  OFFSET -8.9937 0.894989 0.2143
                  CHANNELS 3 Zrotation Xrotation Yrotation
                  JOINT RightHandMiddle2
                  {
                    OFFSET -4.0984 0.0113983 -0.0242
                    CHANNELS 3 Zrotation Xrotation Yrotation
                    JOINT RightHandMiddle3
                    {
                      OFFSET -2.2716 0.00691223 -0.0138001
                      CHANNELS 3 Zrotation Xrotation Yrotation
                      End Site
                      {
                        OFFSET -2.0404 -0.1441 0.0027
                      }
                    }
                  }
                }
                JOINT RightHandRing1
                {
                  OFFSET -8.5234 0.597198 -2.0164
                  CHANNELS 3 Zrotation Xrotation Yrotation
                  JOINT RightHandRing2
                  {
                    OFFSET -3.7188 -0.188309 -0.2328
                    CHANNELS 3 Zrotation Xrotation Yrotation
                    JOINT RightHandRing3
                    {
                      OFFSET -2.1191 -0.106598 -0.1332
                      CHANNELS 3 Zrotation Xrotation Yrotation
                      End Site
                      {
                        OFFSET -1.8737 -0.2304 -0.0886
                      }
                    }
                  }
                }
                JOINT RightHandPinky1
                {
                  OFFSET -7.9094 -0.601105 -3.4825
                  CHANNELS 3 Zrotation Xrotation Yrotation
                  JOINT RightHandPinky2
                  {
                    OFFSET -2.2874 -0.477005 -0.6314
                    CHANNELS 3 Zrotation Xrotation Yrotation
                    JOINT RightHandPinky3
                    {
                      OFFSET -1.6774 -0.349396 -0.4633
                      CHANNELS 3 Zrotation Xrotation Yrotation
                      End Site
                      {
                        OFFSET -1.4888 -0.4091 -0.3416
                      }
                    }
                  }
                }
                JOINT RightHandThumb1
                {
                  OFFSET -1.833 -1.38751 1.3896
                  CHANNELS 3 Zrotation Xrotation Yrotation
                  JOINT RightHandThumb2
                  {
                    OFFSET -3.41299 -1.12099 2.5732
                    CHANNELS 3 Zrotation Xrotation Yrotation
                    JOINT RightHandThumb3
                    {
                      OFFSET -2.24741 -0.804108 1.6192
                      CHANNELS 3 Zrotation Xrotation Yrotation
                      End Site
                      {
                        OFFSET -1.6527 -0.5689 1.1317
                      }
                    }
                  }
                }
              }
            }
          }
        }
      }
    }
  }
  JOINT RightUpLeg
  {
    OFFSET -9.1966 3.8861 -0.7581
    CHANNELS 3 Zrotation Xrotation Yrotation
    JOINT RightLeg
    {
      OFFSET -0.7359 -41.0265 0
      CHANNELS 3 Zrotation Xrotation Yrotation
      JOINT RightFoot
      {
        OFFSET 0 -40.2855 0
        CHANNELS 3 Zrotation Xrotation Yrotation
        JOINT RightToeBase
        {
          OFFSET 0 -5.6122 11.7359
          CHANNELS 3 Zrotation Xrotation Yrotation
          End Site
          {
            OFFSET 0 0 7.8731
          }
        }
      }
    }
  }
  JOINT LeftUpLeg
  {
    OFFSET 9.1965 3.8864 -0.7581
    CHANNELS 3 Zrotation Xrotation Yrotation
    JOINT LeftLeg
    {
      OFFSET 0.7359 -41.0268 0
      CHANNELS 3 Zrotation Xrotation Yrotation
      JOINT LeftFoot
      {
        OFFSET 0 -40.2855 0
        CHANNELS 3 Zrotation Xrotation Yrotation
        JOINT LeftToeBase
        {
          OFFSET 0 -5.6122 11.7359
          CHANNELS 3 Zrotation Xrotation Yrotation
          End Site
          {
            OFFSET 0 0 7.8731
          }
        }
      }
    }
  }
}
MOTION
Frames:	4
Frame Time:	0.0333333
5.84602e-005 68.8428 3.50346 0 0 -0 0 0 -0 0 0 -0 0 0 -0 0 0 -0 0 0 -0 0 0 -0 0 0 -0 0 0 -0 0 0 -0 0 0 -0 0 0 -0 0 0 -0 0 0 -0 -0.0146107 -8.87603e-005 -2.63497e-007 2.99804e-018 -2.42657e-020 -1.42182e-022 0 0 -0 -0.0187562 -0.001176 5.858e-005 5.06224e-018 3.88251e-019 1.21329e-020 0 0 -0 -0.012269 -0.00324817 0.000675346 -1.74678e-018 3.88251e-019 -0 0 0 -0 0 0 -0 0 0 -0 0 0 -0 0 0 -0 0 0 -0 0 0 -0 0 0 -0 0 0 -0 0 0 -0 0 0 -0 0.0149955 -9.10982e-005 2.64101e-007 -9.69331e-018 1.21329e-020 -4.7394e-023 0 0 -0 0.0189956 -0.00119102 -5.96516e-005 -5.41541e-019 0 2.42657e-020 0 0 -0 0.0122698 -0.00324857 -0.000673756 -2.00796e-019 0 -1.94126e-019 0 0 -0 0 0 -0 0 0 -0 3.39842 1.33031 -0.0637918 -5.65207e-008 0.834868 -0.000436188 -3.39935 -2.16518 -0.0642563 -8.89002e-024 -1.18485e-023 -1.48106e-024 -3.39844 1.35642 0.0640283 -3.18788e-007 0.782166 -0.000588827 3.39931 -2.13858 0.0634662 1.1399e-023 0 -0 
3.76513e-005 29.7483 -24.196 -0 -50.6261 -0 -0.0353774 4.79547 -0.0617816 -0.0658926 9.59097 -0.12122 -0.0658926 9.59098 -0.12122 -5.87684e-007 10.157 -5.43805e-007 7.73388e-009 5.10756 -9.09499e-008 0.317977 0.301765 4.86391 -43.2686 0.406199 17.0332 13.1234 14.0138 -43.7953 -4.00114 13.2993 0.129372 2.80195e-007 -7.75296e-007 -2.20314e-007 -5.87484e-007 1.05698e-006 3.65197e-006 2.80195e-007 -7.75296e-007 -2.20314e-007 2.80195e-007 -7.75296e-007 -2.20314e-007 -0.014592 -8.50084e-005 2.47218e-006 2.80198e-007 -7.75268e-007 -2.20413e-007 2.80195e-007 -7.75296e-007 -2.20314e-007 -0.0187651 -0.00117606 6.1099e-005 7.33513e-007 -9.50495e-007 1.16429e-006 2.80195e-007 -7.75296e-007 -2.20314e-007 -0.0122575 -0.00324116 0.000671062 2.80187e-007 -7.75273e-007 -2.20405e-007 2.80195e-007 -7.75296e-007 -2.20314e-007 -5.87484e-007 1.05698e-006 3.65197e-006 2.80195e-007 -7.75296e-007 -2.20314e-007 -0.324357 0.303018 -4.86561 43.2607 0.406834 -17.0351 -13.1257 14.0112 43.7933 3.99864 13.2993 -0.130503 -1.37579e-007 -3.88466e-007 1.10344e-007 -4.12737e-007 -1.1654e-006 3.31033e-007 -1.37579e-007 -3.88466e-007 1.10344e-007 -1.37579e-007 -3.88466e-007 1.10344e-007 0.0150189 -9.17277e-005 -7.32346e-008 -1.37581e-007 -3.88451e-007 1.10395e-007 -1.37579e-007 -3.88466e-007 1.10344e-007 0.018951 -0.00119151 -6.37887e-005 -1.3758e-007 -3.88447e-007 1.1041e-007 -1.37579e-007 -3.88466e-007 1.10344e-007 0.0122397 -0.00323823 -0.000669056 -1.37575e-007 -3.88454e-007 1.1039e-007 -1.37579e-007 -3.88466e-007 1.10344e-007 -4.12737e-007 -1.1654e-006 3.31033e-007 -1.37579e-007 -3.88466e-007 1.10344e-007 -7.68105 1.83897 -0.639744 1.12192 4.78987 -0.544023 -6.68771 6.33842 -0.396688 2.95512e-006 1.04232e-008 7.83808e-007 7.68451 1.85541 0.636877 -1.12606 4.7775 0.542281 6.68586 6.34055 0.394795 -1.60511e-006 1.15183e-007 5.47422e-007 
8.24949e-005 0.201029 -49.3604 -180 -89.9981 -180 -0.0627108 8.55893 -0.108405 -0.110716 17.118 -0.210807 -0.110716 17.118 -0.210807 5.92307e-006 17.9982 -4.64355e-006 4.97752e-008 8.99857 -1.00558e-007 0.603949 0.432956 8.60715 -77.1298 0.631614 30.2922 33.0836 8.32221 -77.4778 -7.08971 23.5991 0.217625 1.06196e-006 -1.26788e-006 -3.10849e-007 2.12392e-006 -2.53575e-006 -6.21697e-007 2.53575e-006 2.12392e-006 -5.79032e-007 1.06196e-006 -1.26788e-006 -3.10849e-007 -0.0146121 -8.63141e-005 -4.04976e-006 2.41635e-006 2.19573e-006 -1.42376e-006 1.06196e-006 -1.26788e-006 -3.10849e-007 -0.0187513 -0.00117448 5.09885e-005 2.53565e-006 2.12401e-006 -5.7871e-007 1.06196e-006 -1.26788e-006 -3.10849e-007 -0.0122596 -0.00324838 0.000670927 2.53568e-006 2.12395e-006 -5.78873e-007 1.06196e-006 -1.26788e-006 -3.10849e-007 2.12392e-006 -2.53575e-006 -6.21697e-007 2.53575e-006 2.12392e-006 -5.79032e-007 -0.60742 0.433242 -8.61063 77.1126 0.634036 -30.2949 -33.0861 8.32122 77.4736 7.08676 23.5989 -0.220558 3.64147e-031 4.37326e-015 -4.77083e-015 -1.98785e-015 1.08338e-014 -3.18055e-015 -7.95139e-016 7.45443e-015 -3.18055e-015 3.64147e-031 4.37326e-015 -4.77083e-015 0.0150074 -9.22148e-005 -7.33494e-006 -1.19271e-015 0 6.36111e-015 3.64147e-031 4.37326e-015 -4.77083e-015 0.0190011 -0.00119226 -5.43522e-005 -1.19271e-015 5.1684e-015 -0 3.64147e-031 4.37326e-015 -4.77083e-015 0.0122338 -0.00323709 -0.000678769 -7.95139e-016 1.88845e-015 -1.59028e-015 3.64147e-031 4.37326e-015 -4.77083e-015 -1.98785e-015 1.08338e-014 -3.18055e-015 -7.95139e-016 7.45443e-015 -3.18055e-015 -16.2314 2.96742 -1.08328 1.99272 6.78997 -0.884691 -9.25274 13.3055 -0.595505 3.93401e-006 9.07118e-008 1.40379e-006 16.2281 2.96572 1.07968 -1.99592 6.79264 0.881478 9.24959 13.3043 0.592438 -5.79892e-006 8.75631e-007 1.83355e-006 
0.000303791 -4.10474 -53.2191 -180 -84.373 -180 -0.0671549 9.22693 -0.114683 -0.117648 18.454 -0.222667 -0.117648 18.454 -0.222667 5.69493e-006 18.8932 -4.1423e-006 1.06559e-007 9.24004 -4.07083e-008 0.930558 0.0690282 8.98713 -82.1595 0.578297 32.2233 35.6681 6.08693 -81.7181 -7.26703 24.9008 0.127337 -7.95139e-016 3.8266e-015 -0 -7.95139e-016 6.90777e-015 -1.59028e-015 -7.95139e-016 -2.68359e-015 -1.59028e-015 -7.95139e-016 3.8266e-015 -0 -0.0146288 -8.47525e-005 2.12513e-006 -0 -9.24349e-015 -0 -7.95139e-016 3.8266e-015 -0 -0.018752 -0.00117559 5.94789e-005 -7.44847e-032 2.68359e-015 1.59028e-015 -7.95139e-016 3.8266e-015 -0 -0.0122944 -0.00325552 0.000671131 -2.48282e-032 1.78906e-015 7.95139e-016 -7.95139e-016 3.8266e-015 -0 -7.95139e-016 6.90777e-015 -1.59028e-015 -7.95139e-016 -2.68359e-015 -1.59028e-015 -0.90395 0.0617114 -8.99275 82.1281 0.586267 -32.2239 -35.6711 6.08561 81.7101 7.26847 24.8998 -0.13383 1.2301e-006 -1.10064e-006 -3.44755e-007 -3.30192e-006 -3.69029e-006 8.06745e-007 -1.10064e-006 -1.2301e-006 2.68915e-007 1.2301e-006 -1.10064e-006 -3.44755e-007 0.0149915 -9.50505e-005 2.72419e-006 -1.10068e-006 -1.23006e-006 2.69077e-007 1.2301e-006 -1.10064e-006 -3.44755e-007 0.0190035 -0.00119417 -6.29897e-005 -4.31175e-007 -1.24119e-007 -4.41979e-007 1.2301e-006 -1.10064e-006 -3.44755e-007 0.012287 -0.00325729 -0.000678369 -4.31765e-007 -1.24274e-007 -4.42032e-007 1.2301e-006 -1.10064e-006 -3.44755e-007 -3.30192e-006 -3.69029e-006 8.06745e-007 -1.10064e-006 -1.2301e-006 2.68915e-007 -17.4567 2.90035 -1.15242 2.08466 7.6919 -0.953763 -9.60526 14.0207 -0.645787 1.35581e-006 3.31975e-007 -9.68119e-007 17.4164 2.77417 1.15485 -2.07268 7.79872 0.951192 9.60087 13.995 0.644728 2.03329e-006 -4.97152e-007 -1.45308e-006 
